<svg width="24" height="24" viewBox="0 0 36 36" fill="none" xmlns="http://www.w3.org/2000/svg">
<path d="M35.7079 25.0862C35.4107 24.6 34.5749 23.8435 32.4945 24.2037C31.3429 24.4018 30.1727 24.4919 29.0025 24.4379C24.6746 24.2578 20.7553 22.3307 18.0249 19.3592C15.6102 16.7478 14.1242 13.344 14.1056 9.67002C14.1056 7.61693 14.5143 5.63588 15.3501 3.76289C16.1674 1.94392 15.5916 0.989416 15.183 0.593206C14.7557 0.178986 13.7527 -0.397319 11.7838 0.395101C4.1868 3.49275 -0.512577 10.8767 0.0446611 18.7829C0.601899 26.2208 5.98854 32.5782 13.1212 34.9735C14.83 35.5498 16.6318 35.8919 18.4892 35.964C18.7864 35.982 19.0836 36 19.3808 36C25.6033 36 31.4357 33.1545 35.1135 28.3099C36.358 26.635 36.0237 25.5725 35.7079 25.0862Z" fill="#292D32"/>
</svg>
