<svg width="24" height="24" viewBox="0 0 24 24" fill="current" xmlns="http://www.w3.org/2000/svg">
<g clip-path="url(#clip0_34_112)">
<path d="M4.86172 15.6684C4.86172 16.0752 5.24435 16.41 5.70927 16.41H18.3854C18.8503 16.41 19.2329 16.0752 19.2329 15.6684C19.2329 15.2616 18.8503 14.9268 18.3854 14.9268H5.70927C5.24024 14.9268 4.86172 15.2616 4.86172 15.6684ZM18.3854 18.6816H5.70927C5.24435 18.6816 4.86172 19.0164 4.86172 19.4232C4.86172 19.83 5.24435 20.1648 5.70927 20.1648H18.3854C18.8503 20.1648 19.2329 19.83 19.2329 19.4232C19.2329 19.0164 18.8503 18.6816 18.3854 18.6816Z" fill="current"/>
<path d="M15.0117 -0.167999H2.3767C1.44275 -0.167999 0.68161 0.498001 0.68161 1.3152V22.6848C0.68161 23.502 1.44275 24.168 2.3767 24.168H21.6274C22.5614 24.168 23.3225 23.502 23.3225 22.6848V7.104L15.0117 -0.167999ZM16.1143 2.8956L20.0188 6.312H16.4064C16.2501 6.312 16.1143 6.1932 16.1143 6.0564V2.8956ZM21.6233 22.6812L2.3767 22.6848C2.3767 22.6848 2.37258 22.6848 2.37258 22.6812V1.3188C2.37258 1.3188 2.37258 1.3152 2.3767 1.3152H14.3493L14.4151 1.3728V6.0528C14.4151 7.0104 15.312 7.7916 16.4023 7.7916H21.6233V22.6812Z" fill="current"/>
<path d="M8.65921 7.6656C10.1527 7.6656 11.3623 6.6072 11.3623 5.3004C11.3623 3.9936 10.1527 2.9352 8.65921 2.9352C7.16572 2.9352 5.95201 3.99 5.95201 5.3004C5.95201 6.6072 7.16161 7.6656 8.65921 7.6656ZM8.65921 4.2312C9.33395 4.2312 9.88115 4.71 9.88115 5.3004C9.88115 5.8908 9.33395 6.3696 8.65921 6.3696C7.98447 6.3696 7.43727 5.8908 7.43727 5.3004C7.43727 4.71 7.98447 4.2312 8.65921 4.2312ZM5.70927 11.7444C6.1783 11.7444 6.55681 11.4132 6.55681 11.0028C6.55681 10.2 7.51955 9.5196 8.65921 9.5196C9.79887 9.5196 10.7616 10.1964 10.7616 11.0028C10.7616 11.4132 11.1401 11.7444 11.6092 11.7444C12.0782 11.7444 12.4567 11.4132 12.4567 11.0028C12.4567 9.3684 10.7534 8.0364 8.65921 8.0364C6.56504 8.0364 4.86172 9.3684 4.86172 11.0028C4.86172 11.4132 5.24024 11.7444 5.70927 11.7444Z" fill="current"/>
</g>
<defs>
<clipPath id="clip0_34_112">
<rect width="24" height="24" fill="current"/>
</clipPath>
</defs>
</svg>
